<svg width="52" height="52" viewBox="0 0 52 52" fill="none" xmlns="http://www.w3.org/2000/svg">
<g clip-path="url(#clip0_68_149)">
<path d="M43.4928 19.9335C43.6714 20.4386 44.0017 20.8763 44.4386 21.1866C44.8755 21.4968 45.3975 21.6646 45.9333 21.6668H49.4C50.0896 21.6668 50.7509 21.3929 51.2385 20.9053C51.7261 20.4177 52 19.7564 52 19.0668V2.60012C52 1.91056 51.7261 1.24924 51.2385 0.761644C50.7509 0.27405 50.0896 0.00012207 49.4 0.00012207L45.9333 0.00012207C45.3975 0.00234331 44.8755 0.170061 44.4386 0.480331C44.0017 0.790601 43.6714 1.22827 43.4928 1.73346H25.5051C24.3862 1.73256 23.2886 2.04024 22.3331 2.62266L8.34167 11.1481C7.79655 11.4769 7.37422 11.9754 7.13933 12.5671C6.90445 13.1588 6.86994 13.8112 7.04111 14.4244C7.21228 15.0376 7.57968 15.5778 8.08708 15.9623C8.59447 16.3468 9.2139 16.5545 9.85053 16.5535C10.6383 16.5535 10.9876 16.2935 13.2444 15.5759C11.3804 17.8552 10.1624 20.5931 9.71772 23.5038C9.27303 26.4145 9.6179 29.3912 10.7163 32.1231C9.98176 32.06 9.24404 32.0412 8.5072 32.0668C8.32859 31.5616 7.99827 31.1239 7.56141 30.8137C7.12455 30.5034 6.60249 30.3357 6.06667 30.3335H2.6C1.91044 30.3335 1.24912 30.6074 0.761522 31.095C0.273928 31.5826 0 32.2439 0 32.9335L0 49.4001C0 50.0897 0.273928 50.751 0.761522 51.2386C1.24912 51.7262 1.91044 52.0001 2.6 52.0001H6.06667C6.60249 51.9979 7.12455 51.8302 7.56141 51.5199C7.99827 51.2096 8.32859 50.772 8.5072 50.2668H26.494C27.613 50.2677 28.7105 49.96 29.666 49.3776L43.6575 40.8522C44.2723 40.4824 44.729 39.8986 44.9399 39.2129C45.1508 38.5271 45.1012 37.7876 44.8004 37.1362C44.4997 36.4848 43.9691 35.9673 43.3103 35.6831C42.6516 35.3988 41.911 35.3678 41.2308 35.5959L38.7573 36.4227C40.6209 34.1433 41.8385 31.4054 42.283 28.495C42.7276 25.5845 42.3827 22.608 41.2845 19.8763C42.0188 19.9393 42.7562 19.9584 43.4928 19.9335ZM45.9333 1.73346H49.4C49.6299 1.73346 49.8503 1.82476 50.0128 1.9873C50.1754 2.14983 50.2667 2.37027 50.2667 2.60012V19.0668C50.2667 19.2966 50.1754 19.5171 50.0128 19.6796C49.8503 19.8421 49.6299 19.9335 49.4 19.9335H45.9333C45.7035 19.9335 45.483 19.8421 45.3205 19.6796C45.158 19.5171 45.0667 19.2966 45.0667 19.0668V2.60012C45.0667 2.37027 45.158 2.14983 45.3205 1.9873C45.483 1.82476 45.7035 1.73346 45.9333 1.73346ZM10.2206 14.7603C9.94555 14.8502 9.64705 14.836 9.38182 14.7203C9.11659 14.6045 8.9031 14.3954 8.78193 14.1326C8.66075 13.8699 8.64032 13.5717 8.72453 13.2949C8.80873 13.018 8.9917 12.7817 9.23867 12.6309L23.2362 4.10206C23.9196 3.68539 24.7048 3.46555 25.5051 3.46679H43.3333V18.2001H42.1885C38.1914 18.2001 37.3005 14.7335 33.1578 14.7335H29.0065C27.1327 14.7335 25.2391 12.7237 26.3865 11.2668H32.6378C34.3574 11.2468 36.0247 10.673 37.3923 9.63052C37.5836 9.50284 37.7163 9.30441 37.7612 9.0789C37.8061 8.85339 37.7597 8.61926 37.632 8.42802C37.5043 8.23678 37.3059 8.1041 37.0803 8.05916C36.8548 8.01422 36.6207 8.06071 36.4295 8.18839C35.3475 9.04088 34.0151 9.51355 32.6378 9.53346H26.2851C26.0044 9.54387 25.7259 9.5881 25.4557 9.66519L10.2206 14.7603ZM6.06667 50.2668H2.6C2.37015 50.2668 2.14971 50.1755 1.98717 50.013C1.82464 49.8504 1.73333 49.63 1.73333 49.4001V32.9335C1.73333 32.7036 1.82464 32.4832 1.98717 32.3206C2.14971 32.1581 2.37015 32.0668 2.6 32.0668H6.06667C6.29652 32.0668 6.51696 32.1581 6.67949 32.3206C6.84202 32.4832 6.93333 32.7036 6.93333 32.9335V49.4001C6.93333 49.63 6.84202 49.8504 6.67949 50.013C6.51696 50.1755 6.29652 50.2668 6.06667 50.2668ZM41.7785 37.2399C42.0536 37.15 42.3521 37.1643 42.6173 37.28C42.8825 37.3957 43.096 37.6048 43.2172 37.8676C43.3384 38.1304 43.3588 38.4285 43.2746 38.7054C43.1904 38.9822 43.0074 39.2185 42.7605 39.3693L28.7638 47.8982C28.08 48.3147 27.2946 48.5345 26.494 48.5335H8.66667V33.8001H9.81067C13.8069 33.8001 14.6969 37.2668 18.8413 37.2668H22.9927C24.8629 37.2668 26.7601 39.2766 25.6126 40.7335H19.3613C17.6418 40.7531 15.9746 41.3273 14.6077 42.3706C14.4226 42.5007 14.2957 42.698 14.2542 42.9204C14.2126 43.1428 14.2596 43.3726 14.3852 43.5607C14.5108 43.7489 14.705 43.8805 14.9263 43.9274C15.1476 43.9743 15.3785 43.9329 15.5697 43.8119C16.6516 42.9594 17.984 42.4867 19.3613 42.4668H25.714C25.9947 42.4563 26.2732 42.412 26.5434 42.3351L41.7785 37.2399ZM34.9535 37.6949L27.6943 40.1216C27.9431 38.0416 25.8414 35.5283 22.9927 35.5283H18.8413C16.3531 35.5283 14.9266 33.5098 12.8657 32.6683C11.301 29.6016 10.8624 26.0829 11.6264 22.7259C12.3905 19.369 14.3087 16.3867 17.0465 14.2993L24.3048 11.8726C24.0561 13.9526 26.1586 16.4659 29.0065 16.4659H33.1578C35.7231 16.4659 36.9027 18.4159 39.1378 19.3259C40.7023 22.393 41.1404 25.9119 40.3757 29.269C39.611 32.626 37.6921 35.6081 34.9535 37.6949Z" fill="#19737A"/>
<path d="M22.9667 14.2239C22.8936 14.006 22.7369 13.8261 22.5311 13.7237C22.3254 13.6213 22.0874 13.6048 21.8695 13.6779C20.1725 14.2468 18.6113 15.16 17.2836 16.3603C15.956 17.5606 14.8904 19.0221 14.1538 20.6532C13.4172 22.2844 13.0253 24.0501 13.0027 25.8398C12.9802 27.6294 13.3274 29.4045 14.0227 31.0537C14.1125 31.2653 14.2828 31.4325 14.496 31.5186C14.7091 31.6046 14.9477 31.6025 15.1593 31.5126C15.3709 31.4227 15.5381 31.2525 15.6242 31.0393C15.7102 30.8262 15.7081 30.5876 15.6182 30.376C15.0163 28.9469 14.7159 27.4089 14.7359 25.8583C14.7558 24.3077 15.0956 22.778 15.7339 21.3648C16.3723 19.9516 17.2956 18.6854 18.4459 17.6454C19.5961 16.6055 20.9487 15.8142 22.4189 15.3211C22.527 15.2851 22.6269 15.2281 22.7129 15.1535C22.7989 15.0788 22.8694 14.9879 22.9202 14.886C22.9711 14.7841 23.0014 14.6732 23.0093 14.5596C23.0173 14.446 23.0028 14.3319 22.9667 14.2239ZM36.3818 21.6244C36.9837 23.0535 37.2841 24.5915 37.2642 26.1421C37.2442 27.6926 36.9045 29.2224 36.2661 30.6356C35.6277 32.0488 34.7045 33.315 33.5542 34.3549C32.4039 35.3949 31.0513 36.1861 29.5811 36.6792C29.3627 36.7523 29.1823 36.9092 29.0796 37.1153C28.9769 37.3214 28.9602 37.5598 29.0333 37.7782C29.1064 37.9965 29.2633 38.1769 29.4694 38.2796C29.6755 38.3824 29.9139 38.399 30.1323 38.3259C31.8295 37.7569 33.391 36.8434 34.7187 35.6428C36.0465 34.4422 37.1121 32.9804 37.8486 31.3488C38.5851 29.7172 38.9766 27.9511 38.9988 26.1612C39.021 24.3712 38.6732 22.5959 37.9773 20.9466C37.8875 20.7351 37.7172 20.5678 37.5041 20.4818C37.2909 20.3957 37.0523 20.3979 36.8407 20.4877C36.6291 20.5776 36.4619 20.7479 36.3759 20.961C36.2898 21.1742 36.2919 21.4128 36.3818 21.6244ZM31.2 29.0335C31.2 27.0688 29.3549 25.4914 26.8667 25.1898V20.8808C28.34 21.1295 29.4667 21.9797 29.4667 22.9668C29.4667 23.1967 29.558 23.4171 29.7205 23.5797C29.883 23.7422 30.1035 23.8335 30.3333 23.8335C30.5632 23.8335 30.7836 23.7422 30.9462 23.5797C31.1087 23.4171 31.2 23.1967 31.2 22.9668C31.2 21.0021 29.3549 19.4248 26.8667 19.1232V18.2002C26.8667 17.9703 26.7754 17.7499 26.6128 17.5873C26.4503 17.4248 26.2299 17.3335 26 17.3335C25.7702 17.3335 25.5497 17.4248 25.3872 17.5873C25.2247 17.7499 25.1333 17.9703 25.1333 18.2002V19.1232C22.6451 19.4248 20.8 21.0021 20.8 22.9668C20.8 24.9316 22.6451 26.5089 25.1333 26.8105V31.1196C23.66 30.8708 22.5333 30.0206 22.5333 29.0335C22.5333 28.8037 22.442 28.5832 22.2795 28.4207C22.117 28.2582 21.8965 28.1668 21.6667 28.1668C21.4368 28.1668 21.2164 28.2582 21.0539 28.4207C20.8913 28.5832 20.8 28.8037 20.8 29.0335C20.8 30.9982 22.6451 32.5756 25.1333 32.8772V33.8002C25.1333 34.03 25.2247 34.2505 25.3872 34.413C25.5497 34.5755 25.7702 34.6668 26 34.6668C26.2299 34.6668 26.4503 34.5755 26.6128 34.413C26.7754 34.2505 26.8667 34.03 26.8667 33.8002V32.8772C29.3549 32.5756 31.2 30.9982 31.2 29.0335ZM22.5333 22.9668C22.5333 21.9797 23.66 21.1295 25.1333 20.8808V25.0529C23.66 24.8042 22.5333 23.954 22.5333 22.9668ZM26.8667 31.1196V26.9474C28.34 27.1962 29.4667 28.0464 29.4667 29.0335C29.4667 30.0206 28.34 30.8708 26.8667 31.1196Z" fill="#19737A"/>
</g>
<defs>
<clipPath id="clip0_68_149">
<rect width="52" height="52" fill="white"/>
</clipPath>
</defs>
</svg>
