<svg width="54" height="54" viewBox="0 0 54 54" fill="none" xmlns="http://www.w3.org/2000/svg">
<g clip-path="url(#clip0_68_141)">
<path d="M50.85 4.49999C50.3202 4.50377 49.8001 4.64254 49.3389 4.90319C49.1927 4.42837 48.9352 3.99531 48.588 3.63998C48.2407 3.28466 47.8137 3.01733 47.3424 2.86022C46.8711 2.70311 46.369 2.66076 45.8781 2.73667C45.3871 2.81258 44.9213 3.00457 44.5194 3.29669C44.2701 2.88924 43.9308 2.54424 43.5276 2.2881C43.1244 2.03196 42.6679 1.87147 42.1931 1.81892C41.7183 1.76636 41.2378 1.82314 40.7884 1.98491C40.3389 2.14667 39.9324 2.40913 39.6 2.75219C39.0535 2.18481 38.312 1.84601 37.5253 1.80424C36.7386 1.76248 35.9654 2.02086 35.3619 2.52719C34.9531 1.79695 34.3655 1.18252 33.6543 0.741557C32.943 0.300594 32.1314 0.0475495 31.2955 0.00616652C30.4597 -0.0352165 29.627 0.136418 28.8757 0.504967C28.1243 0.873516 27.4789 1.4269 27 2.11319C26.5211 1.4269 25.8757 0.873516 25.1243 0.504967C24.373 0.136418 23.5403 -0.0352165 22.7045 0.00616652C21.8686 0.0475495 21.057 0.300594 20.3457 0.741557C19.6345 1.18252 19.0469 1.79695 18.6381 2.52719C18.0346 2.02086 17.2614 1.76248 16.4747 1.80424C15.688 1.84601 14.9465 2.18481 14.4 2.75219C14.0676 2.40913 13.6611 2.14667 13.2116 1.98491C12.7622 1.82314 12.2817 1.76636 11.8069 1.81892C11.3321 1.87147 10.8756 2.03196 10.4724 2.2881C10.0692 2.54424 9.72994 2.88924 9.4806 3.29669C9.07873 3.00457 8.61294 2.81258 8.12195 2.73667C7.63096 2.66076 7.12894 2.70311 6.65761 2.86022C6.18628 3.01733 5.75925 3.28466 5.41201 3.63998C5.06476 3.99531 4.80733 4.42837 4.6611 4.90319C4.19986 4.64254 3.67978 4.50377 3.15 4.49999C2.31457 4.49999 1.51335 4.83187 0.922614 5.4226C0.331874 6.01334 0 6.81456 0 7.64999L0 43.2C0 49.1643 4.8357 54 10.8 54C16.7643 54 21.6 49.1643 21.6 43.2V40.0626C21.6326 37.3843 22.3363 34.7568 23.6466 32.4207C26.3331 27.5211 26.208 22.599 26.1243 19.3419C26.1117 18.8532 26.1 18.4032 26.1 18C26.1425 16.4344 26.4467 14.8869 27 13.4217C27.5533 14.8869 27.8575 16.4344 27.9 18C27.9 18.4032 27.8883 18.8532 27.8757 19.3419C27.792 22.599 27.6669 27.5211 30.3534 32.4207C31.6637 34.7568 32.3674 37.3843 32.4 40.0626V43.2C32.4 49.1643 37.2357 54 43.2 54C49.1643 54 54 49.1643 54 43.2V7.64999C54 6.81456 53.6681 6.01334 53.0774 5.4226C52.4866 4.83187 51.6854 4.49999 50.85 4.49999ZM47.7 29.7C46.5471 29.6959 45.41 29.9687 44.3844 30.4955C43.3589 31.0224 42.4748 31.7878 41.8067 32.7274C41.1385 33.667 40.7057 34.7533 40.5448 35.895C40.3839 37.0366 40.4995 38.2003 40.8819 39.288C41.2643 40.3757 41.9023 41.3556 42.7423 42.1454C43.5822 42.9352 44.5996 43.5117 45.7087 43.8265C46.8179 44.1412 47.9864 44.185 49.116 43.9541C50.2456 43.7233 51.3033 43.2245 52.2 42.4998V43.2C52.1971 43.7234 52.1486 44.2456 52.0551 44.7606C50.6791 45.5291 49.1255 45.9229 47.5495 45.9024C45.9736 45.882 44.4307 45.448 43.0751 44.644C41.7196 43.84 40.5989 42.6942 39.8253 41.3211C39.0516 39.948 38.6521 38.3958 38.6667 36.8198C38.6813 35.2438 39.1095 33.6993 39.9085 32.3407C40.7075 30.9822 41.8492 29.8573 43.2194 29.0786C44.5896 28.2998 46.1404 27.8946 47.7164 27.9033C49.2924 27.9121 50.8385 28.3346 52.2 29.1285V31.3002C50.9253 30.2712 49.3382 29.7068 47.7 29.7ZM52.2 33.9372V39.8628C51.7141 40.6135 51.0475 41.2301 50.2612 41.6559C49.4749 42.0818 48.5942 42.3033 47.7 42.3C46.2678 42.3 44.8943 41.7311 43.8816 40.7184C42.8689 39.7057 42.3 38.3322 42.3 36.9C42.3 35.4678 42.8689 34.0943 43.8816 33.0816C44.8943 32.0689 46.2678 31.5 47.7 31.5C48.5942 31.4967 49.4749 31.7182 50.2612 32.144C51.0475 32.5699 51.7141 33.1865 52.2 33.9372ZM19.8 43.2C19.8 48.1707 15.7707 52.2 10.8 52.2C5.8293 52.2 1.8 48.1707 1.8 43.2V7.64999C1.8 7.29195 1.94223 6.94857 2.19541 6.6954C2.44858 6.44222 2.79196 6.29999 3.15 6.29999C3.50804 6.29999 3.85142 6.44222 4.10459 6.6954C4.35777 6.94857 4.5 7.29195 4.5 7.64999V11.7C4.5 11.9387 4.59482 12.1676 4.7636 12.3364C4.93239 12.5052 5.1613 12.6 5.4 12.6C5.63869 12.6 5.86761 12.5052 6.0364 12.3364C6.20518 12.1676 6.3 11.9387 6.3 11.7V5.84999C6.3 5.49195 6.44223 5.14857 6.69541 4.8954C6.94858 4.64222 7.29196 4.49999 7.65 4.49999C8.00804 4.49999 8.35142 4.64222 8.60459 4.8954C8.85777 5.14857 9 5.49195 9 5.84999V10.8C9 11.0387 9.09482 11.2676 9.2636 11.4364C9.43239 11.6052 9.6613 11.7 9.9 11.7C10.1387 11.7 10.3676 11.6052 10.5364 11.4364C10.7052 11.2676 10.8 11.0387 10.8 10.8V4.94999C10.8 4.59195 10.9422 4.24857 11.1954 3.9954C11.4486 3.74222 11.792 3.59999 12.15 3.59999C12.508 3.59999 12.8514 3.74222 13.1046 3.9954C13.3578 4.24857 13.5 4.59195 13.5 4.94999V9.89999C13.5 10.1387 13.5948 10.3676 13.7636 10.5364C13.9324 10.7052 14.1613 10.8 14.4 10.8C14.6387 10.8 14.8676 10.7052 15.0364 10.5364C15.2052 10.3676 15.3 10.1387 15.3 9.89999V4.94999C15.3 4.59195 15.4422 4.24857 15.6954 3.9954C15.9486 3.74222 16.292 3.59999 16.65 3.59999C17.008 3.59999 17.3514 3.74222 17.6046 3.9954C17.8578 4.24857 18 4.59195 18 4.94999V9.89999C18 10.1387 18.0948 10.3676 18.2636 10.5364C18.4324 10.7052 18.6613 10.8 18.9 10.8C19.1387 10.8 19.3676 10.7052 19.5364 10.5364C19.7052 10.3676 19.8 10.1387 19.8 9.89999V4.94999C19.8 4.11456 20.1319 3.31334 20.7226 2.7226C21.3134 2.13186 22.1146 1.79999 22.95 1.79999C23.7854 1.79999 24.5866 2.13186 25.1774 2.7226C25.7681 3.31334 26.1 4.11456 26.1 4.94999V9.89999C26.0066 10.728 25.7973 11.5387 25.4781 12.3084C25.38 12.5946 25.2774 12.8988 25.1748 13.2084C24.0265 12.8037 22.8175 12.598 21.6 12.6C15.777 12.6 11.0043 17.2188 10.8126 23.0382C10.6209 28.8585 15.0795 33.7806 20.8899 34.164C20.1829 36.0509 19.814 38.0476 19.8 40.0626V43.2ZM24.3243 19.3887C24.5294 22.4576 24.2064 25.5389 23.3694 28.4985C22.5137 28.7995 21.596 28.8802 20.7009 28.7329C19.8058 28.5857 18.9622 28.2154 18.248 27.6561C17.5338 27.0969 16.972 26.3667 16.6145 25.533C16.2569 24.6994 16.1151 23.7891 16.2022 22.8861C16.2893 21.9832 16.6024 21.1168 17.1127 20.3668C17.623 19.6168 18.314 19.0075 19.1219 18.595C19.9298 18.1826 20.8286 17.9803 21.7354 18.0069C22.6421 18.0334 23.5275 18.288 24.3099 18.747C24.3135 18.954 24.3189 19.17 24.3243 19.3887ZM21.6 16.2C20.6088 16.1932 19.6268 16.3911 18.7156 16.7814C17.8045 17.1716 16.9837 17.7459 16.3047 18.468C15.6257 19.1902 15.1032 20.0449 14.7698 20.9784C14.4365 21.9119 14.2994 22.9042 14.3673 23.8931C14.4352 24.882 14.7066 25.8462 15.1645 26.7254C15.6223 27.6046 16.2568 28.3798 17.0281 29.0024C17.7994 29.625 18.691 30.0816 19.6469 30.3437C20.6029 30.6057 21.6027 30.6675 22.5837 30.5253C22.4244 30.87 22.2561 31.2138 22.0689 31.5567C21.9159 31.8339 21.7755 32.1165 21.6378 32.3991H21.6C16.6293 32.3991 12.6 28.3698 12.6 23.3991C12.6 18.4284 16.6293 14.3991 21.6 14.3991C22.6503 14.3991 23.6916 14.5845 24.6771 14.9481C24.535 15.5486 24.4322 16.1576 24.3693 16.7715C23.4936 16.3981 22.552 16.2038 21.6 16.2ZM43.2 52.2C38.232 52.1946 34.2054 48.168 34.2 43.2V40.0626C34.1677 37.0821 33.3876 34.1573 31.9311 31.5567C29.4786 27.0819 29.5965 22.4514 29.6757 19.3887C29.6883 18.882 29.7 18.4176 29.7 18C29.6362 16.0493 29.2377 14.1241 28.5219 12.3084C28.2027 11.5387 27.9934 10.728 27.9 9.89999V4.94999C27.9 4.11456 28.2319 3.31334 28.8226 2.7226C29.4134 2.13186 30.2146 1.79999 31.05 1.79999C31.8854 1.79999 32.6866 2.13186 33.2774 2.7226C33.8681 3.31334 34.2 4.11456 34.2 4.94999V9.89999C34.2 10.1387 34.2948 10.3676 34.4636 10.5364C34.6324 10.7052 34.8613 10.8 35.1 10.8C35.3387 10.8 35.5676 10.7052 35.7364 10.5364C35.9052 10.3676 36 10.1387 36 9.89999V4.94999C36 4.59195 36.1422 4.24857 36.3954 3.9954C36.6486 3.74222 36.992 3.59999 37.35 3.59999C37.708 3.59999 38.0514 3.74222 38.3046 3.9954C38.5578 4.24857 38.7 4.59195 38.7 4.94999V9.89999C38.7 10.1387 38.7948 10.3676 38.9636 10.5364C39.1324 10.7052 39.3613 10.8 39.6 10.8C39.8387 10.8 40.0676 10.7052 40.2364 10.5364C40.4052 10.3676 40.5 10.1387 40.5 9.89999V4.94999C40.5 4.59195 40.6422 4.24857 40.8954 3.9954C41.1486 3.74222 41.492 3.59999 41.85 3.59999C42.208 3.59999 42.5514 3.74222 42.8046 3.9954C43.0578 4.24857 43.2 4.59195 43.2 4.94999V10.8C43.2 11.0387 43.2948 11.2676 43.4636 11.4364C43.6324 11.6052 43.8613 11.7 44.1 11.7C44.3387 11.7 44.5676 11.6052 44.7364 11.4364C44.9052 11.2676 45 11.0387 45 10.8V5.84999C45 5.49195 45.1422 5.14857 45.3954 4.8954C45.6486 4.64222 45.992 4.49999 46.35 4.49999C46.708 4.49999 47.0514 4.64222 47.3046 4.8954C47.5578 5.14857 47.7 5.49195 47.7 5.84999V11.7C47.7 11.9387 47.7948 12.1676 47.9636 12.3364C48.1324 12.5052 48.3613 12.6 48.6 12.6C48.8387 12.6 49.0676 12.5052 49.2364 12.3364C49.4052 12.1676 49.5 11.9387 49.5 11.7V7.64999C49.5 7.29195 49.6422 6.94857 49.8954 6.6954C50.1486 6.44222 50.492 6.29999 50.85 6.29999C51.208 6.29999 51.5514 6.44222 51.8046 6.6954C52.0578 6.94857 52.2 7.29195 52.2 7.64999V27.0792C50.5918 26.3435 48.8275 26.0139 47.0621 26.1196C45.2967 26.2252 43.5843 26.7627 42.0752 27.685C40.5662 28.6072 39.3067 29.8859 38.4075 31.4087C37.5082 32.9316 36.9967 34.652 36.9178 36.4187C36.839 38.1855 37.1952 39.9446 37.9552 41.5415C38.7153 43.1384 39.8558 44.5242 41.2767 45.5772C42.6975 46.6302 44.3553 47.3182 46.1042 47.5807C47.8532 47.8432 49.6398 47.6721 51.3072 47.0826C50.5754 48.6129 49.4261 49.9052 47.9917 50.8106C46.5573 51.7161 44.8962 52.1977 43.2 52.2Z" fill="#19737A"/>
<path d="M9.90001 34.2001C8.65399 34.2001 7.43595 34.5696 6.39992 35.2618C5.36389 35.9541 4.5564 36.938 4.07957 38.0892C3.60274 39.2403 3.47797 40.5071 3.72106 41.7291C3.96415 42.9512 4.56417 44.0738 5.44524 44.9548C6.32631 45.8359 7.44886 46.4359 8.67094 46.679C9.89302 46.9221 11.1597 46.7973 12.3109 46.3205C13.4621 45.8437 14.446 45.0362 15.1383 44.0002C15.8305 42.9641 16.2 41.7461 16.2 40.5001C16.1981 38.8298 15.5337 37.2285 14.3527 36.0474C13.1716 34.8663 11.5703 34.202 9.90001 34.2001ZM9.90001 45.0001C8.70653 45.0001 7.56194 44.526 6.71803 43.6821C5.87411 42.8381 5.40001 41.6935 5.40001 40.5001C5.40001 39.3066 5.87411 38.162 6.71803 37.3181C7.56194 36.4742 8.70653 36.0001 9.90001 36.0001C11.0935 36.0001 12.2381 36.4742 13.082 37.3181C13.9259 38.162 14.4 39.3066 14.4 40.5001C14.4 41.6935 13.9259 42.8381 13.082 43.6821C12.2381 44.526 11.0935 45.0001 9.90001 45.0001Z" fill="#19737A"/>
<path d="M9.90001 37.8001C9.18393 37.8001 8.49717 38.0846 7.99082 38.5909C7.48448 39.0973 7.20001 39.784 7.20001 40.5001C7.20001 41.2162 7.48448 41.903 7.99082 42.4093C8.49717 42.9157 9.18393 43.2001 9.90001 43.2001C10.6161 43.2001 11.3029 42.9157 11.8092 42.4093C12.3155 41.903 12.6 41.2162 12.6 40.5001C12.6 39.784 12.3155 39.0973 11.8092 38.5909C11.3029 38.0846 10.6161 37.8001 9.90001 37.8001ZM9.90001 41.4001C9.66132 41.4001 9.4324 41.3053 9.26362 41.1365C9.09483 40.9677 9.00001 40.7388 9.00001 40.5001C9.00001 40.2614 9.09483 40.0325 9.26362 39.8637C9.4324 39.6949 9.66132 39.6001 9.90001 39.6001C10.1387 39.6001 10.3676 39.6949 10.5364 39.8637C10.7052 40.0325 10.8 40.2614 10.8 40.5001C10.8 40.7388 10.7052 40.9677 10.5364 41.1365C10.3676 41.3053 10.1387 41.4001 9.90001 41.4001ZM43.2 19.8001C43.2 18.5541 42.8305 17.3361 42.1383 16.3C41.446 15.264 40.4621 14.4565 39.3109 13.9797C38.1597 13.5029 36.893 13.3781 35.6709 13.6212C34.4489 13.8643 33.3263 14.4643 32.4452 15.3454C31.5642 16.2264 30.9642 17.349 30.7211 18.5711C30.478 19.7931 30.6027 21.0599 31.0796 22.211C31.5564 23.3622 32.3639 24.3461 33.3999 25.0384C34.4359 25.7306 35.654 26.1001 36.9 26.1001C38.5703 26.0982 40.1716 25.4339 41.3527 24.2528C42.5337 23.0717 43.1981 21.4704 43.2 19.8001ZM32.4 19.8001C32.4 18.6067 32.8741 17.4621 33.718 16.6181C34.5619 15.7742 35.7065 15.3001 36.9 15.3001C38.0935 15.3001 39.2381 15.7742 40.082 16.6181C40.9259 17.4621 41.4 18.6067 41.4 19.8001C41.4 20.9936 40.9259 22.1382 40.082 22.9821C39.2381 23.826 38.0935 24.3001 36.9 24.3001C35.7065 24.3001 34.5619 23.826 33.718 22.9821C32.8741 22.1382 32.4 20.9936 32.4 19.8001Z" fill="#19737A"/>
<path d="M39.6 19.8001C39.6 19.084 39.3155 18.3973 38.8092 17.8909C38.3029 17.3846 37.6161 17.1001 36.9 17.1001C36.1839 17.1001 35.4972 17.3846 34.9908 17.8909C34.4845 18.3973 34.2 19.084 34.2 19.8001C34.2 20.5162 34.4845 21.2029 34.9908 21.7093C35.4972 22.2156 36.1839 22.5001 36.9 22.5001C37.6161 22.5001 38.3029 22.2156 38.8092 21.7093C39.3155 21.2029 39.6 20.5162 39.6 19.8001ZM36 19.8001C36 19.5614 36.0948 19.3325 36.2636 19.1637C36.4324 18.9949 36.6613 18.9001 36.9 18.9001C37.1387 18.9001 37.3676 18.9949 37.5364 19.1637C37.7052 19.3325 37.8 19.5614 37.8 19.8001C37.8 20.0388 37.7052 20.2677 37.5364 20.4365C37.3676 20.6053 37.1387 20.7001 36.9 20.7001C36.6613 20.7001 36.4324 20.6053 36.2636 20.4365C36.0948 20.2677 36 20.0388 36 19.8001Z" fill="#19737A"/>
</g>
<defs>
<clipPath id="clip0_68_141">
<rect width="54" height="54" fill="white"/>
</clipPath>
</defs>
</svg>
