<svg width="50" height="50" viewBox="0 0 50 50" fill="none" xmlns="http://www.w3.org/2000/svg">
<mask id="mask0_68_127" style="mask-type:luminance" maskUnits="userSpaceOnUse" x="0" y="0" width="50" height="51">
<path d="M49 49.0001V1.00162H1.0015V49.0001H49Z" fill="white" stroke="white" stroke-width="2"/>
</mask>
<g mask="url(#mask0_68_127)">
<path d="M44.7726 19.6288C44.3107 17.9253 43.6418 16.3106 42.7823 14.8138L44.4042 11.1216L38.88 5.59743L35.1878 7.21926C33.691 6.35981 32.0763 5.69088 30.3727 5.22898L28.9068 1.4665H21.0945L19.6286 5.22898C17.925 5.69088 16.3103 6.35981 14.8135 7.21926L11.1213 5.59743L5.59722 11.1216L7.21894 14.8138C6.35959 16.3106 5.69067 17.9253 5.22877 19.6288L1.46619 21.0948V28.9071L5.22877 30.373C5.69067 32.0766 6.35959 33.6912 7.21894 35.188L5.59722 38.8802L11.1213 44.4043L14.8135 42.7825C16.3103 43.642 17.925 44.3108 19.6286 44.7728L21.0945 48.5354H28.9068L30.3727 44.7728C32.0763 44.3108 33.691 43.642 35.1878 42.7825L38.88 44.4043L44.4042 38.8802L42.7823 35.188C43.6418 33.6912 44.3107 32.0766 44.7726 30.373L48.5351 28.9071V21.0948L44.7726 19.6288Z" stroke="#19737A" stroke-width="2" stroke-miterlimit="10" stroke-linecap="round" stroke-linejoin="round"/>
<path d="M10.3528 25.0008C10.3528 16.9109 16.9109 10.3528 25.0008 10.3528C33.0906 10.3528 39.6487 16.9109 39.6487 25.0008C39.6487 33.0907 33.0906 39.6488 25.0008 39.6488C16.9109 39.6488 10.3528 33.0907 10.3528 25.0008Z" stroke="#19737A" stroke-width="2" stroke-miterlimit="10" stroke-linecap="round" stroke-linejoin="round"/>
<path d="M20.1181 21.5829C20.1181 18.8863 22.3042 16.7002 25.0008 16.7002C27.6974 16.7002 29.8834 18.8863 29.8834 21.5829C29.8834 24.2795 27.6974 26.4656 25.0008 26.4656C22.3042 26.4656 20.1181 24.2795 20.1181 21.5829Z" stroke="#19737A" stroke-width="2" stroke-miterlimit="10" stroke-linecap="round" stroke-linejoin="round"/>
<path d="M33.5454 36.8818V35.0103C33.5454 30.2912 29.7198 26.4656 25.0008 26.4656C20.2817 26.4656 16.4561 30.2912 16.4561 35.0103V36.8818" stroke="#19737A" stroke-width="2" stroke-miterlimit="10" stroke-linecap="round" stroke-linejoin="round"/>
</g>
</svg>
