<svg width="146" height="44" viewBox="0 0 146 44" fill="none" xmlns="http://www.w3.org/2000/svg">
<path d="M0.0628572 32.2143V29.7943H6.63143C9.58572 29.7943 11.0629 28.7991 11.0629 26.8086C11.0629 25.5305 10.2771 24.5143 8.70571 23.76L3.45714 21.2772C1.15238 20.1877 0 18.5638 0 16.4058C0 12.9696 2.16857 11.2515 6.50572 11.2515H12.8857V13.6715H7.26C6.25429 13.6715 5.52095 13.7134 5.06 13.7972C4.59905 13.881 4.11714 14.1219 3.61429 14.52C3.13238 14.9181 2.89143 15.5572 2.89143 16.4372C2.89143 17.1077 3.04857 17.6419 3.36286 18.04C3.67714 18.4381 4.24286 18.8258 5.06 19.2029L10.5914 21.7486C12.8333 22.7962 13.9543 24.4724 13.9543 26.7772C13.9543 30.4019 11.7752 32.2143 7.41714 32.2143H0.0628572Z" fill="#1E1E1E"/>
<path d="M18.9689 20.2086V26.8715C18.9689 28.1077 19.1889 28.9353 19.6289 29.3543C20.0689 29.7734 20.9593 29.9829 22.3003 29.9829H23.526V32.2143H22.1746C19.9955 32.2143 18.4974 31.8372 17.6803 31.0829C16.8631 30.3286 16.4546 28.9562 16.4546 26.9658V13.6715H18.9689V18.0086H23.526V20.2086H18.9689Z" fill="#1E1E1E"/>
<path d="M37.9507 25.6143L39.7107 26.5886C38.5584 30.5277 36.0965 32.4972 32.325 32.4972C30.2717 32.4972 28.5117 31.7848 27.045 30.36C25.5993 28.9143 24.8765 27.1543 24.8765 25.08C24.8765 22.9848 25.5888 21.2248 27.0136 19.8C28.4384 18.3753 30.2088 17.6629 32.325 17.6629C35.1326 17.6629 37.3326 19.0772 38.925 21.9058L29.7793 27.8772L28.7107 26.0229L35.6565 21.3715C34.8603 20.4077 33.7498 19.9258 32.325 19.9258C30.9422 19.9258 29.7898 20.3972 28.8679 21.34C27.946 22.2829 27.485 23.4772 27.485 24.9229C27.485 26.3686 27.9879 27.6153 28.9936 28.6629C29.9993 29.7105 31.2041 30.2343 32.6079 30.2343C33.9279 30.2343 35.0488 29.8362 35.9707 29.04C36.8926 28.2438 37.5526 27.1019 37.9507 25.6143Z" fill="#1E1E1E"/>
<path d="M41.5935 38.9086V25.6458C41.5935 23.2991 42.2849 21.3819 43.6678 19.8943C45.0506 18.4067 46.8421 17.6629 49.0421 17.6629C51.1583 17.6629 52.9287 18.3962 54.3535 19.8629C55.7992 21.3086 56.5221 23.0896 56.5221 25.2058C56.5221 27.1962 55.8097 28.9143 54.3849 30.36C52.9602 31.8058 51.263 32.5286 49.2935 32.5286C47.8268 32.5286 46.444 32.0153 45.1449 30.9886V28.2543C45.8783 28.9038 46.5383 29.3648 47.1249 29.6372C47.7116 29.9096 48.3611 30.0458 49.0735 30.0458C50.4564 30.0458 51.6087 29.5743 52.5306 28.6315C53.4526 27.6886 53.9135 26.5048 53.9135 25.08C53.9135 23.7181 53.4526 22.5553 52.5306 21.5915C51.6087 20.6277 50.4878 20.1458 49.1678 20.1458C48.3297 20.1458 47.5545 20.3343 46.8421 20.7115C46.1297 21.0677 45.4907 21.6543 44.9249 22.4715C44.3802 23.2886 44.1078 24.5248 44.1078 26.18V38.9086H41.5935Z" fill="#1E1E1E"/>
<path d="M88.4557 32.2144H85.6586V18.1973C85.6586 15.9135 86.2767 14.1849 87.5129 13.0115C88.749 11.8382 90.5719 11.2515 92.9814 11.2515H96.7529V13.6715H93.0129C91.4205 13.6715 90.2576 14.0592 89.5243 14.8344C88.8119 15.5887 88.4557 16.8144 88.4557 18.5115V20.7744H96.7529V23.1944H88.4557V32.2144Z" fill="#1E1E1E"/>
<path d="M105.699 17.663C107.732 17.663 109.471 18.3963 110.917 19.863C112.362 21.3296 113.085 23.1001 113.085 25.1744C113.085 27.1649 112.362 28.883 110.917 30.3287C109.471 31.7744 107.732 32.4973 105.699 32.4973C103.604 32.4973 101.823 31.7744 100.357 30.3287C98.8899 28.883 98.1566 27.1125 98.1566 25.0173C98.1566 23.0058 98.8899 21.2773 100.357 19.8315C101.823 18.3858 103.604 17.663 105.699 17.663ZM105.699 20.1458C104.338 20.1458 103.175 20.6173 102.211 21.5601C101.247 22.503 100.765 23.6554 100.765 25.0173C100.765 26.442 101.237 27.6363 102.179 28.6001C103.143 29.543 104.338 30.0144 105.762 30.0144C107.019 30.0144 108.119 29.5325 109.062 28.5687C110.005 27.6049 110.477 26.4735 110.477 25.1744C110.477 23.7706 110.005 22.5868 109.062 21.623C108.14 20.6382 107.019 20.1458 105.699 20.1458Z" fill="#1E1E1E"/>
<path d="M118.107 32.2144H115.593V17.9458H118.107V20.4601C119.092 18.5744 120.642 17.6315 122.759 17.6315L123.701 17.6944V20.0515H123.199C121.439 20.0515 120.15 20.5125 119.333 21.4344C118.516 22.3563 118.107 23.802 118.107 25.7715V32.2144Z" fill="#1E1E1E"/>
<path d="M145.112 32.2144H142.598V23.6658C142.598 22.5763 142.325 21.7173 141.78 21.0887C141.236 20.4601 140.492 20.1458 139.549 20.1458C138.439 20.1458 137.684 20.4496 137.286 21.0573C136.888 21.6439 136.647 22.1258 136.563 22.503C136.479 22.8592 136.438 23.4039 136.438 24.1373V32.2144H133.923V23.8858C133.923 21.3925 132.865 20.1458 130.749 20.1458C129.68 20.1458 128.937 20.4496 128.518 21.0573C128.119 21.6649 127.889 22.1258 127.826 22.4401C127.763 22.7544 127.732 23.2782 127.732 24.0115V32.2144H125.218V23.6344C125.218 22.482 125.312 21.602 125.5 20.9944C125.71 20.3868 126.202 19.6849 126.978 18.8887C127.753 18.0715 128.968 17.663 130.623 17.663C132.635 17.663 134.164 18.543 135.212 20.303C136.218 18.543 137.716 17.663 139.706 17.663C141.361 17.663 142.671 18.1868 143.635 19.2344C144.619 20.2611 145.112 21.6439 145.112 23.383V32.2144Z" fill="#1E1E1E"/>
<g clip-path="url(#clip0_34_1159)">
<path d="M77.8106 26.7596C77.312 26.0445 76.8263 25.2917 76.2859 24.5831C74.2568 21.9226 71.6272 20.1342 68.5526 18.9989C65.7686 17.9709 62.9192 17.2899 59.9465 17.2674C59.5325 17.2643 59.4305 17.0911 59.4364 16.6959C59.4677 14.5482 60.2257 12.7362 61.8469 11.3779C64.2993 9.32328 67.0795 8.1444 70.294 8.50746C74.5151 8.98429 78.4846 12.4546 79.2898 16.7304C79.5067 17.8823 79.3912 19.0219 79.1936 20.157C79.0826 20.7944 78.9243 21.4231 78.7651 22.1581C78.4664 21.795 78.2249 21.4875 77.9696 21.1926C75.559 18.4099 72.4803 16.8598 68.997 16.0692C68.3301 15.9178 67.6524 15.8127 66.9763 15.7096C66.5001 15.6368 66.0726 15.9145 66.0372 16.3227C65.9941 16.8179 66.2871 17.0794 66.7226 17.1708C67.5177 17.3376 68.326 17.4454 69.1131 17.6437C72.3048 18.4483 75.0276 20.0405 77.1165 22.7083C78.0718 23.9284 78.6026 25.2009 77.8106 26.7596Z" fill="#19737A"/>
<path d="M61.1125 21.5713C61.9743 21.742 62.8511 21.8566 63.6957 22.0925C69.8381 23.8078 74.018 27.7071 75.8868 34.0131C76.7196 36.8232 76.3376 39.5354 74.3275 41.7665C72.538 43.7526 70.2742 44.444 67.7224 43.7204C65.0631 42.9664 63.6412 40.9811 63.1032 38.2939C62.705 36.3049 63.1669 33.6984 64.1999 31.7357C64.2666 32.7465 64.2777 33.6284 64.397 34.4945C64.4891 35.1628 64.6172 35.8625 64.9059 36.4575C65.4619 37.6026 66.6933 38.1158 67.8276 37.8156C68.9336 37.523 69.6867 36.4779 69.7309 35.2039C69.8033 33.1137 68.8311 31.4164 67.7782 29.7628C66.8383 28.2871 65.6208 27.0807 64.2098 26.0743C63.7998 25.7819 63.4398 25.4153 63.0568 25.0826C63.1078 25.0149 63.1587 24.9473 63.2097 24.8795C63.5553 24.9993 63.9138 25.0899 64.2446 25.2432C68.0087 26.9879 70.5928 29.8848 72.0081 33.8532C72.6405 35.6261 72.4723 37.3696 71.3137 38.9137C70.4353 40.0846 69.0874 40.47 67.7287 39.9832C67.5924 39.9344 67.4616 39.8648 67.3222 39.8303C66.9346 39.7341 66.5518 39.7053 66.3415 40.1545C66.1172 40.6333 66.376 40.9993 66.7469 41.1626C67.3003 41.4064 67.8968 41.6223 68.4907 41.6805C71.7259 41.9972 73.6307 38.852 73.826 36.5414C74.0414 33.9922 73.0588 31.8573 71.7389 29.8462C69.4325 26.332 66.2925 24.0155 62.2432 23.0742C61.5263 22.9076 61.4271 22.2124 61.0382 21.7654C61.063 21.7009 61.0877 21.6362 61.1125 21.5713Z" fill="#19737A"/>
<path d="M59.3372 5.21749C59.3779 3.97777 59.5376 2.77192 60.1503 1.67863C60.7864 0.543206 61.6954 -0.14101 63.026 0.0244723C64.2915 0.181931 64.9677 1.07308 65.3714 2.21486C66.1467 4.40825 65.407 6.97473 63.6136 8.34661C63.313 8.57662 62.9769 8.77508 62.6308 8.92173C61.2122 9.52259 60.1497 9.01668 59.6572 7.52098C59.5651 7.24139 59.4941 6.9491 59.4577 6.6568C59.3983 6.17952 59.3754 5.69745 59.3372 5.21749Z" fill="#19737A"/>
<path d="M59.8564 18.7299C61.601 18.7373 63.2715 18.9845 64.9164 19.409C67.5726 20.0943 70.1219 21.0494 72.3196 22.7897C74.2904 24.3504 75.8176 26.2886 76.973 28.5662C77.4581 29.5224 77.2389 30.4334 77.1476 31.3773C77.1229 31.6322 77.062 31.8835 76.9907 32.2907C76.7951 31.8567 76.6509 31.5378 76.5075 31.2185C73.7226 25.0219 68.9338 21.5486 62.5013 20.3152C62.0059 20.2203 61.5022 20.1709 61.0019 20.1047C60.1633 19.9938 59.9336 19.7337 59.8564 18.7299Z" fill="#19737A"/>
<path d="M67.0007 3.17537C67.1131 2.47154 67.1466 1.87235 67.3118 1.3145C67.5919 0.369189 68.2945 -0.0421209 69.2233 0.0930508C70.0154 0.208275 70.524 0.829642 70.5802 1.76849C70.6569 3.04844 70.4521 4.27546 69.8903 5.42782C69.6333 5.95513 69.2493 6.35374 68.646 6.34973C68.0193 6.34549 67.6512 5.87189 67.4811 5.34112C67.2476 4.61289 67.1424 3.8412 67.0007 3.17537Z" fill="#19737A"/>
<path d="M74.9539 3.66992C74.8279 4.69323 74.4788 5.76825 73.672 6.63567C73.336 6.99695 72.9334 7.25871 72.4194 7.09913C71.9242 6.94535 71.7494 6.49727 71.6522 6.03748C71.4125 4.9034 71.664 3.82403 72.1067 2.79414C72.4501 1.99526 73.1717 1.64914 73.9155 1.84293C74.5767 2.01521 74.9835 2.67167 74.9539 3.66992Z" fill="#19737A"/>
<path d="M64.9711 28.5107C65.5648 29.2917 66.2155 30.0345 66.7382 30.8629C67.4632 32.0122 68.1036 33.2237 68.2234 34.6327C68.2478 34.9201 68.2228 35.2267 68.1499 35.5047C68.0394 35.9268 67.7489 36.2806 67.3202 36.2573C66.9814 36.2389 66.6012 36.0576 66.3391 35.8281C66.1316 35.6463 65.9915 35.2894 65.9655 34.9967C65.7739 32.8384 65.5611 30.6873 64.7749 28.6411C64.8403 28.5978 64.9057 28.5542 64.9711 28.5107Z" fill="#19737A"/>
<path d="M75.1001 7.38708C75.4026 6.60402 75.6439 5.78742 76.0252 5.04738C76.3912 4.33708 77.1954 4.13204 77.8556 4.43905C78.4405 4.71106 78.7423 5.42838 78.5668 6.18904C78.3601 7.08498 77.8837 7.81789 77.2172 8.42165C76.8177 8.7836 76.349 9.03154 75.8319 8.78404C75.3038 8.53142 75.2671 7.97078 75.1001 7.38708Z" fill="#19737A"/>
<path d="M78.0277 10.3777C78.07 9.68589 78.406 8.90284 79.0159 8.25651C79.4824 7.76218 80.1936 7.65977 80.7014 7.96767C81.2166 8.28013 81.4646 8.95064 81.2723 9.62394C81.0228 10.4971 80.494 11.163 79.7311 11.6172C78.7457 12.204 78.0192 11.7613 78.0277 10.3777Z" fill="#19737A"/>
</g>
<defs>
<clipPath id="clip0_34_1159">
<rect width="22" height="44" fill="white" transform="translate(59.3372)"/>
</clipPath>
</defs>
</svg>
