<svg width="24" height="24" viewBox="0 0 24 24" fill="none" xmlns="http://www.w3.org/2000/svg">
<path fill-rule="evenodd" clip-rule="evenodd" d="M2.31 4.29686C2.30428 4.29765 2.29856 4.29851 2.29286 4.29943L2.28514 4.284V4.30029C1.65671 4.37069 1.07626 4.67019 0.654708 5.14155C0.233158 5.6129 7.42132e-05 6.22307 5.72244e-07 6.85543V17.9983C-0.000224819 18.336 0.0661333 18.6705 0.19528 18.9826C0.324426 19.2947 0.513828 19.5782 0.752652 19.8171C0.991476 20.0559 1.27504 20.2453 1.58712 20.3744C1.8992 20.5036 2.23368 20.5699 2.57143 20.5697H2.718C2.58128 20.9577 2.53955 21.3729 2.59632 21.7803C2.65308 22.1878 2.80668 22.5757 3.04425 22.9115C3.28182 23.2474 3.59643 23.5214 3.96171 23.7107C4.327 23.8999 4.73232 23.9988 5.14371 23.9991C5.55503 23.9987 5.96025 23.8997 6.32543 23.7104C6.69061 23.5211 7.0051 23.247 7.24257 22.9112C7.48004 22.5753 7.63356 22.1875 7.69028 21.7801C7.747 21.3727 7.70527 20.9577 7.56857 20.5697H16.0037C15.867 20.9577 15.8253 21.3729 15.882 21.7803C15.9388 22.1878 16.0924 22.5757 16.33 22.9115C16.5675 23.2474 16.8821 23.5214 17.2474 23.7107C17.6127 23.8999 18.018 23.9988 18.4294 23.9991C18.8407 23.9987 19.246 23.8997 19.6111 23.7104C19.9763 23.5211 20.2908 23.247 20.5283 22.9112C20.7658 22.5753 20.9193 22.1875 20.976 21.7801C21.0327 21.3727 20.991 20.9577 20.8543 20.5697H21.4286C22.1109 20.5697 22.7649 20.2989 23.2466 19.8163C23.4855 19.5777 23.6751 19.2943 23.8043 18.9823C23.9336 18.6704 24.0001 18.336 24 17.9983V12.708C23.9999 12.0261 23.7288 11.3721 23.2466 10.89L19.1083 6.75171C18.6262 6.26944 17.9722 5.99843 17.2903 5.99829H15.4286C15.1011 5.99829 14.7806 6.06086 14.4814 6.17914C14.333 5.63476 14.0097 5.15431 13.5613 4.81183C13.1129 4.46936 12.5642 4.28389 12 4.284H11.8346C11.7092 3.10842 11.1535 2.02071 10.2746 1.23005C9.39563 0.439383 8.25539 0.00158959 7.07314 0.000858307C5.88855 0.00131102 4.74613 0.440646 3.86647 1.23403C2.98681 2.02742 2.4323 3.11859 2.31 4.29686ZM18.4294 20.5697C18.6568 20.5697 18.8748 20.66 19.0355 20.8208C19.1963 20.9815 19.2866 21.1995 19.2866 21.4269C19.2866 21.6542 19.1963 21.8722 19.0355 22.0329C18.8748 22.1937 18.6568 22.284 18.4294 22.284C18.2021 22.284 17.9841 22.1937 17.8233 22.0329C17.6626 21.8722 17.5723 21.6542 17.5723 21.4269C17.5723 21.1995 17.6626 20.9815 17.8233 20.8208C17.9841 20.66 18.2021 20.5697 18.4294 20.5697ZM5.14371 20.5697C5.37104 20.5697 5.58906 20.66 5.74981 20.8208C5.91055 20.9815 6.00086 21.1995 6.00086 21.4269C6.00086 21.6542 5.91055 21.8722 5.74981 22.0329C5.58906 22.1937 5.37104 22.284 5.14371 22.284C4.91639 22.284 4.69837 22.1937 4.53762 22.0329C4.37688 21.8722 4.28657 21.6542 4.28657 21.4269C4.28657 21.1995 4.37688 20.9815 4.53762 20.8208C4.69837 20.66 4.91639 20.5697 5.14371 20.5697ZM11.6383 5.99829C11.4729 6.52457 11.2226 7.104 10.9157 7.69543C10.0877 9.28971 8.87657 11.0074 8.21829 11.9031H9.42857C9.6559 11.9031 9.87392 11.9934 10.0347 12.1542C10.1954 12.3149 10.2857 12.533 10.2857 12.7603C10.2857 12.9876 10.1954 13.2056 10.0347 13.3664C9.87392 13.5271 9.6559 13.6174 9.42857 13.6174H5.14286C4.91553 13.6174 4.69751 13.5271 4.53677 13.3664C4.37602 13.2056 4.28571 12.9876 4.28571 12.7603C4.28571 12.533 4.37602 12.3149 4.53677 12.1542C4.69751 11.9934 4.91553 11.9031 5.14286 11.9031H5.928C5.26886 11.0074 4.05771 9.28971 3.23057 7.69543C2.94212 7.15207 2.70039 6.58518 2.508 6.00086C2.29228 6.01686 2.09059 6.11384 1.94339 6.27233C1.79618 6.43083 1.71434 6.63912 1.71429 6.85543V17.9983C1.71474 18.2255 1.80519 18.4432 1.96584 18.6039C2.12649 18.7645 2.34424 18.855 2.57143 18.8554H12.8571V6.85543C12.8571 6.6281 12.7668 6.41008 12.6061 6.24934C12.4453 6.08859 12.2273 5.99829 12 5.99829H11.6383ZM16.2857 7.71257H15.4286C15.2012 7.71257 14.9832 7.80288 14.8225 7.96362C14.6617 8.12437 14.5714 8.34239 14.5714 8.56971V18.8554H21.4286C21.5412 18.8558 21.6528 18.8338 21.757 18.7909C21.8611 18.7479 21.9558 18.6848 22.0354 18.6051C22.1151 18.5255 22.1782 18.4308 22.2212 18.3267C22.2641 18.2226 22.2861 18.1109 22.2857 17.9983V14.5697H18.8571C18.1752 14.5697 17.5211 14.2988 17.0389 13.8166C16.5566 13.3343 16.2857 12.6803 16.2857 11.9983V7.71257ZM18 8.06743V11.9983C18 12.2256 18.0903 12.4436 18.2511 12.6044C18.4118 12.7651 18.6298 12.8554 18.8571 12.8554H22.2857V12.708C22.2857 12.4807 22.1953 12.2627 22.0346 12.102L18 8.06743ZM7.07314 10.566C6.42514 9.66857 5.44543 8.24143 4.752 6.906C4.332 6.09686 3.99943 5.33829 3.99943 4.78886C3.99943 3.09172 5.37686 1.71514 7.07314 1.71514C8.76943 1.71514 10.1469 3.09172 10.1469 4.78886C10.1469 5.33829 9.81343 6.09686 9.39429 6.906C8.7 8.24143 7.72114 9.66857 7.07314 10.566ZM7.22486 3.42686C7.56879 3.44196 7.89362 3.5892 8.13165 3.83791C8.36968 4.08662 8.50254 4.4176 8.50254 4.76186C8.50254 5.10612 8.36968 5.43709 8.13165 5.6858C7.89362 5.93451 7.56879 6.08176 7.22486 6.09686C6.87665 6.08803 6.54567 5.94351 6.30251 5.69411C6.05935 5.44471 5.92326 5.11018 5.92326 4.76186C5.92326 4.41354 6.05935 4.079 6.30251 3.8296C6.54567 3.58021 6.87665 3.43568 7.22486 3.42686Z" fill="black"/>
</svg>
