<svg width="85" height="85" viewBox="0 0 85 85" fill="none" xmlns="http://www.w3.org/2000/svg">
<path fill-rule="evenodd" clip-rule="evenodd" d="M55.0027 16.9629L61.1796 20.5281L37.4449 34.231L37.0302 33.9923C35.5229 33.1245 34.0156 32.2567 32.5112 31.3842L31.2704 30.6645L55.0027 16.9629ZM36.9458 35.0935L36.53 34.8541C35.0239 33.9876 33.519 33.119 32.0153 32.2484L30.769 31.5263V41.6233L36.9457 45.1884V35.0935H36.9458ZM74.3085 52.7012C74.7678 52.6929 75.1942 52.8722 75.5199 53.1938C76.1879 53.8536 76.1949 54.9325 75.5343 55.5997C74.442 56.7031 73.3511 57.808 72.2618 58.9144C70.4332 60.7723 68.6004 62.6263 66.7556 64.4683C66.5976 64.6265 66.41 64.7519 66.2034 64.8374C65.9968 64.9229 65.7754 64.9667 65.5518 64.9663C65.3281 64.9667 65.1065 64.9228 64.8998 64.8372C64.6931 64.7517 64.5053 64.626 64.3474 64.4676L59.4713 59.5884C58.8051 58.9217 58.8044 57.8426 59.4728 57.1772C59.6308 57.0193 59.8183 56.8941 60.0248 56.8088C60.2312 56.7234 60.4524 56.6797 60.6758 56.68C61.1296 56.68 61.5598 56.8579 61.8804 57.179L65.1935 60.4968C65.2395 60.5429 65.2941 60.5793 65.3542 60.6042C65.4144 60.629 65.4788 60.6418 65.5438 60.6416H65.5498C65.615 60.6413 65.6795 60.6281 65.7395 60.6027C65.7996 60.5773 65.854 60.5403 65.8996 60.4937L73.12 53.2023C73.4345 52.8849 73.8617 52.7048 74.3085 52.7012Z" fill="#D5D5D5"/>
<path fill-rule="evenodd" clip-rule="evenodd" d="M74.9367 53.7843C74.7726 53.6203 74.5616 53.5257 74.3194 53.5312C74.0905 53.5327 73.8714 53.6245 73.7098 53.7866L66.4895 61.0781C66.3668 61.2022 66.2208 61.3009 66.0599 61.3685C65.899 61.4361 65.7263 61.4712 65.5518 61.4718H65.544C65.1924 61.4715 64.8552 61.3319 64.6063 61.0835L61.293 57.7655C61.129 57.6007 60.9102 57.51 60.6757 57.51C60.4413 57.51 60.2225 57.6007 60.0583 57.7655C59.9766 57.8464 59.9118 57.9427 59.8675 58.0488C59.8232 58.1549 59.8004 58.2687 59.8004 58.3836C59.8004 58.4986 59.8232 58.6124 59.8675 58.7185C59.9118 58.8246 59.9766 58.9208 60.0583 59.0017L64.9344 63.8809C65.0984 64.0458 65.3172 64.1364 65.5516 64.1364C65.786 64.1364 66.0049 64.0458 66.1689 63.8809C68.013 62.0406 69.8728 60.155 71.6701 58.332C72.7588 57.2238 73.8501 56.1184 74.9443 55.0157C75.2805 54.6743 75.2805 54.1218 74.9367 53.7843ZM76.8276 56.885C75.7337 57.9868 74.6475 59.0925 73.5612 60.1967C71.7561 62.0237 69.8964 63.9131 68.0522 65.7595C67.3801 66.4261 66.4971 66.7933 65.5516 66.7933C64.6062 66.7933 63.7231 66.4259 63.0589 65.7595L58.1752 60.8795C56.7999 59.5034 56.7999 57.2638 58.1752 55.8871C58.8395 55.2205 59.7303 54.8533 60.6757 54.8533C61.1389 54.8523 61.5977 54.9432 62.0256 55.1206C62.4535 55.2981 62.8419 55.5586 63.1685 55.8871L65.544 58.2611L71.8265 51.9183C72.4829 51.2486 73.366 50.8791 74.3114 50.8751H74.327C74.7884 50.8738 75.2455 50.9637 75.672 51.1398C76.0985 51.3159 76.4859 51.5746 76.812 51.901C78.1872 53.2693 78.1951 55.5057 76.8276 56.885ZM81.016 58.8347C81.016 66.2886 74.9523 72.3532 67.4975 72.3532C60.0427 72.3532 53.979 66.2886 53.979 58.8347C53.979 51.3799 60.0429 45.3154 67.4975 45.3154C74.9523 45.3154 81.016 51.3799 81.016 58.8347ZM52.0255 63.5474L47.5559 66.1292V40.6394L69.6232 27.8977V42.7984C68.9185 42.7056 68.2085 42.6589 67.4977 42.6586C58.5818 42.6586 51.3224 49.9148 51.3224 58.8347C51.323 60.4317 51.5599 62.0198 52.0255 63.5474ZM68.2945 25.597L62.176 22.0619L40.0931 34.8067C41.992 35.8991 44.0315 37.0767 46.2194 38.3419L68.2945 25.597ZM44.899 40.6449V66.1346L22.8162 53.3874V27.8975C24.1681 28.6781 26.2154 29.8565 28.9425 31.4326V41.9107C28.9419 42.144 29.0031 42.3733 29.1197 42.5753C29.2364 42.7774 29.4044 42.9449 29.6068 43.061L36.7801 47.2018C37.1864 47.4394 37.6944 47.4394 38.1086 47.2018C38.515 46.9651 38.7728 46.5266 38.7728 46.0515V37.1074C40.6637 38.2006 42.7032 39.379 44.899 40.6449ZM24.1445 25.597C25.4964 26.3776 27.5359 27.556 30.2708 29.1322L52.3457 16.388L46.2194 12.8522L24.1445 25.597ZM31.5993 32.9666V41.1442L36.1159 43.751V35.5734C34.6092 34.7066 33.1036 33.8376 31.5993 32.9666ZM55.0027 17.9213L32.9277 30.6662C34.4319 31.5375 35.9374 32.4064 37.4443 33.2729L59.5193 20.5281L55.0027 17.9213ZM83.6729 58.8347C83.6729 67.7537 76.4135 75.0093 67.4977 75.0093C61.1682 75.0093 55.6749 71.3523 53.0179 66.0401L46.8838 69.5822C46.6819 69.699 46.4528 69.7604 46.2196 69.7604C45.9864 69.7604 45.7573 69.699 45.5554 69.5822L21.1361 55.4815H2.65561C2.4812 55.4816 2.30848 55.4473 2.14732 55.3806C1.98615 55.314 1.83971 55.2162 1.71634 55.0929C1.59298 54.9696 1.49511 54.8232 1.42833 54.6621C1.36155 54.501 1.32717 54.3283 1.32715 54.1539C1.32706 53.9794 1.36136 53.8066 1.42809 53.6454C1.49482 53.4842 1.59267 53.3377 1.71605 53.2143C1.83943 53.0909 1.98591 52.9931 2.14712 52.9264C2.30834 52.8596 2.48113 52.8253 2.65561 52.8254H20.1593V41.2035H9.21173C9.03725 41.2036 8.86446 41.1693 8.70325 41.1026C8.54203 41.0358 8.39555 40.938 8.27217 40.8146C8.1488 40.6912 8.05095 40.5447 7.98422 40.3835C7.91749 40.2223 7.88318 40.0495 7.88327 39.875C7.88327 39.7006 7.91764 39.5279 7.98441 39.3668C8.05118 39.2057 8.14905 39.0593 8.27242 38.936C8.39579 38.8127 8.54224 38.7149 8.70341 38.6482C8.86458 38.5816 9.03731 38.5473 9.21173 38.5474H20.1593V26.9253H2.65561C1.92115 26.9253 1.32715 26.3307 1.32715 25.5969C1.32715 24.8631 1.92099 24.2684 2.65561 24.2684H21.1361L41.2654 12.6463H32.2165C32.0421 12.6464 31.8694 12.6122 31.7082 12.5455C31.547 12.4788 31.4006 12.3811 31.2772 12.2578C31.1538 12.1345 31.056 11.9881 30.9892 11.8269C30.9224 11.6658 30.8881 11.4931 30.8881 11.3187C30.888 11.1442 30.9223 10.9714 30.989 10.8102C31.0557 10.649 31.1536 10.5025 31.277 10.3791C31.4003 10.2558 31.5468 10.1579 31.708 10.0912C31.8692 10.0244 32.042 9.99015 32.2165 9.99023H46.2194C46.4539 9.99023 46.6805 10.052 46.8837 10.1684L55.6433 15.2265C55.6574 15.232 55.6707 15.2396 55.6825 15.2491L62.8169 19.3673C62.8325 19.3751 62.8403 19.3821 62.8559 19.3892L71.6155 24.4465C72.0219 24.6841 72.2797 25.1224 72.2797 25.5967V43.3801C78.8749 45.4239 83.6729 51.5791 83.6729 58.8347ZM7.88327 11.319C7.88327 11.4934 7.91764 11.6661 7.98441 11.8273C8.05118 11.9884 8.14905 12.1348 8.27242 12.2581C8.39579 12.3814 8.54224 12.4792 8.70341 12.5458C8.86458 12.6125 9.03731 12.6468 9.21173 12.6467H23.9415C24.1159 12.6467 24.2886 12.6125 24.4498 12.5458C24.6109 12.4791 24.7574 12.3813 24.8807 12.258C25.0041 12.1348 25.102 11.9884 25.1687 11.8273C25.2355 11.6661 25.2699 11.4934 25.2699 11.319C25.27 11.1445 25.2357 10.9718 25.169 10.8105C25.1022 10.6493 25.0044 10.5028 24.881 10.3795C24.7576 10.2561 24.6112 10.1582 24.4499 10.0915C24.2887 10.0248 24.1159 9.99048 23.9415 9.99057H9.21173C9.03726 9.99052 8.86449 10.0249 8.7033 10.0916C8.5421 10.1583 8.39564 10.2562 8.27227 10.3796C8.1489 10.5029 8.05105 10.6494 7.98431 10.8106C7.91756 10.9718 7.88323 11.1446 7.88327 11.319Z" fill="white"/>
</svg>
