<svg width="72" height="76" viewBox="0 0 72 76" fill="none" xmlns="http://www.w3.org/2000/svg">
<path d="M17.4885 10.5171C8.47703 10.5171 1.14496 17.9466 1.14766 26.9693C1.11208 27.6267 0.319492 43.1799 6.86658 54.0641C10.7228 60.4696 15.7487 61.4271 18.4016 61.4271C23.4371 61.4271 28.0638 58.1196 29.1626 53.7353C30.7925 47.2316 27.9222 43.7261 26.0234 41.406C24.9739 40.1224 24.383 39.3615 24.4601 38.6432C24.5475 37.8352 25.4301 36.2576 29.1347 33.3307C31.0018 31.8561 33.2529 28.7685 33.7898 26.1566C34.7525 21.4607 34.1503 17.7429 32.0007 15.107C28.6841 11.0378 22.5027 10.5171 17.4885 10.5171ZM29.8949 25.3557C29.5734 26.9291 27.9274 29.2163 26.6715 30.2089C22.6128 33.4161 20.7695 35.8088 20.5082 38.2123C20.2476 40.6232 21.6826 42.3765 22.948 43.9214C24.7487 46.124 26.4529 48.2034 25.3062 52.7675C24.6476 55.3943 21.6151 57.4519 18.4013 57.4519C15.2705 57.4519 12.3828 55.5212 10.2723 52.0144C4.36513 42.1929 5.1084 27.3386 5.12018 27.0807C5.12018 20.1403 10.6695 14.4926 17.4883 14.4926C21.624 14.4926 26.6617 14.8476 28.9209 17.6168C30.2791 19.2815 30.6065 21.8862 29.8949 25.3557Z" fill="white"/>
<path d="M28.2319 8.94424C30.7018 8.94424 32.704 6.942 32.704 4.47212C32.704 2.00224 30.7018 0 28.2319 0C25.762 0 23.7598 2.00224 23.7598 4.47212C23.7598 6.942 25.762 8.94424 28.2319 8.94424Z" fill="white"/>
<path d="M18.1949 7.94781C20.2074 7.94781 21.8389 6.31636 21.8389 4.30386C21.8389 2.29136 20.2074 0.659912 18.1949 0.659912C16.1824 0.659912 14.551 2.29136 14.551 4.30386C14.551 6.31636 16.1824 7.94781 18.1949 7.94781Z" fill="white"/>
<path d="M10.8047 9.33761C12.3598 9.33761 13.6205 8.07694 13.6205 6.52183C13.6205 4.96672 12.3598 3.70605 10.8047 3.70605C9.24962 3.70605 7.98895 4.96672 7.98895 6.52183C7.98895 8.07694 9.24962 9.33761 10.8047 9.33761Z" fill="white"/>
<path d="M4.9332 12.2872C6.17797 12.2872 7.18705 11.2782 7.18705 10.0334C7.18705 8.78862 6.17797 7.77954 4.9332 7.77954C3.68843 7.77954 2.67935 8.78862 2.67935 10.0334C2.67935 11.2782 3.68843 12.2872 4.9332 12.2872Z" fill="white"/>
<path d="M1.69487 16.337C2.63091 16.337 3.38973 15.5782 3.38973 14.6421C3.38973 13.7061 2.63091 12.9473 1.69487 12.9473C0.758817 12.9473 0 13.7061 0 14.6421C0 15.5782 0.758817 16.337 1.69487 16.337Z" fill="white"/>
<path d="M41.9962 47.9046C45.7025 50.8316 46.5822 52.4079 46.6703 53.2162C46.7478 53.9347 46.1579 54.6954 45.1072 55.9792C43.2077 58.2993 40.3374 61.8046 41.968 68.3085C43.0678 72.6926 47.6952 76.0001 52.73 76.0001C55.3829 76.0001 60.4088 75.0451 64.2638 68.6359C70.8116 57.7543 70.0208 42.2004 69.9857 41.6545C69.9857 32.5198 62.6538 25.0903 53.6421 25.0903C48.6267 25.0903 42.4465 25.6125 39.1287 29.6775C36.9786 32.3134 36.3782 36.0298 37.3403 40.7277C37.8789 43.3417 40.1306 46.4294 41.9962 47.9046ZM42.2112 32.1927C44.4692 29.4236 49.5067 29.0682 53.6451 29.0682C60.4633 29.0682 66.0131 34.716 66.0158 41.7683C66.0237 41.9158 66.7819 56.7451 60.8591 66.5886C58.7486 70.0969 55.8631 72.0273 52.73 72.0273C49.5145 72.0273 46.4813 69.9698 45.824 67.3405C44.68 62.7776 46.3815 60.6997 48.1814 58.4971C49.4495 56.9495 50.8835 55.1974 50.6219 52.7868C50.3616 50.3837 48.5178 47.9898 44.4599 44.7846C43.2047 43.792 41.5587 41.5043 41.235 39.9309C40.5251 36.4609 40.8525 33.8574 42.2112 32.1927Z" fill="white"/>
<path d="M42.9009 23.5199C45.3708 23.5199 47.373 21.5177 47.373 19.0478C47.373 16.5779 45.3708 14.5757 42.9009 14.5757C40.431 14.5757 38.4288 16.5779 38.4288 19.0478C38.4288 21.5177 40.431 23.5199 42.9009 23.5199Z" fill="white"/>
<path d="M52.9386 15.2356C54.9507 15.2356 56.5825 16.8667 56.5825 18.8795C56.5825 20.8917 54.951 22.5235 52.9386 22.5235C50.925 22.5235 49.2944 20.8917 49.2944 18.8795C49.2946 16.8669 50.925 15.2356 52.9386 15.2356Z" fill="white"/>
<path d="M60.3276 23.9133C61.8827 23.9133 63.1434 22.6526 63.1434 21.0975C63.1434 19.5424 61.8827 18.2817 60.3276 18.2817C58.7725 18.2817 57.5118 19.5424 57.5118 21.0975C57.5118 22.6526 58.7725 23.9133 60.3276 23.9133Z" fill="white"/>
<path d="M66.1996 26.8632C67.4444 26.8632 68.4535 25.8541 68.4535 24.6093C68.4535 23.3646 67.4444 22.3555 66.1996 22.3555C64.9549 22.3555 63.9458 23.3646 63.9458 24.6093C63.9458 25.8541 64.9549 26.8632 66.1996 26.8632Z" fill="white"/>
<path d="M69.4374 27.5233C69.6617 27.5206 69.8843 27.5625 70.0923 27.6464C70.3002 27.7304 70.4895 27.8548 70.649 28.0124C70.8086 28.1701 70.9352 28.3578 71.0217 28.5648C71.1082 28.7717 71.1527 28.9938 71.1527 29.2181C71.1527 29.4423 71.1082 29.6644 71.0217 29.8714C70.9352 30.0783 70.8086 30.2661 70.649 30.4237C70.4895 30.5813 70.3002 30.7057 70.0923 30.7897C69.8843 30.8737 69.6617 30.9155 69.4374 30.9128C68.988 30.9127 68.557 30.7341 68.2392 30.4164C67.9213 30.0987 67.7426 29.6678 67.7423 29.2184C67.7423 28.7689 67.9209 28.3377 68.2388 28.0198C68.5567 27.7019 68.9878 27.5233 69.4374 27.5233Z" fill="white"/>
</svg>
