<svg width="74" height="75" viewBox="0 0 74 75" fill="none" xmlns="http://www.w3.org/2000/svg">
<path d="M71.1529 8.58743H72.3797C72.705 8.58743 73.0171 8.45818 73.2471 8.22811C73.4772 7.99805 73.6064 7.68601 73.6064 7.36065V2.45355C73.6064 2.12819 73.4772 1.81615 73.2471 1.58609C73.0171 1.35602 72.705 1.22678 72.3797 1.22678H67.4726C67.1472 1.22678 66.8352 1.35602 66.6051 1.58609C66.375 1.81615 66.2458 2.12819 66.2458 2.45355V3.68033H41.7103V1.22678C41.7103 0.901414 41.581 0.589379 41.351 0.359314C41.1209 0.129249 40.8089 0 40.4835 0L33.1229 0C32.7975 0 32.4855 0.129249 32.2554 0.359314C32.0253 0.589379 31.8961 0.901414 31.8961 1.22678V3.68033H7.36056V2.45355C7.36056 2.12819 7.23131 1.81615 7.00125 1.58609C6.77118 1.35602 6.45915 1.22678 6.13379 1.22678H1.22668C0.901323 1.22678 0.589288 1.35602 0.359223 1.58609C0.129158 1.81615 -9.15527e-05 2.12819 -9.15527e-05 2.45355L-9.15527e-05 7.36065C-9.15527e-05 7.68601 0.129158 7.99805 0.359223 8.22811C0.589288 8.45818 0.901323 8.58743 1.22668 8.58743H2.45346V66.2459H1.22668C0.901323 66.2459 0.589288 66.3751 0.359223 66.6052C0.129158 66.8353 -9.15527e-05 67.1473 -9.15527e-05 67.4727L-9.15527e-05 72.3798C-9.15527e-05 72.7051 0.129158 73.0172 0.359223 73.2472C0.589288 73.4773 0.901323 73.6065 1.22668 73.6065H6.13379C6.45915 73.6065 6.77118 73.4773 7.00125 73.2472C7.23131 73.0172 7.36056 72.7051 7.36056 72.3798V71.153H31.8961V73.6065C31.8961 73.9319 32.0253 74.2439 32.2554 74.474C32.4855 74.7041 32.7975 74.8333 33.1229 74.8333H40.4835C40.8089 74.8333 41.1209 74.7041 41.351 74.474C41.581 74.2439 41.7103 73.9319 41.7103 73.6065V71.153H66.2458V72.3798C66.2458 72.7051 66.375 73.0172 66.6051 73.2472C66.8352 73.4773 67.1472 73.6065 67.4726 73.6065H72.3797C72.705 73.6065 73.0171 73.4773 73.2471 73.2472C73.4772 73.0172 73.6064 72.7051 73.6064 72.3798V67.4727C73.6064 67.1473 73.4772 66.8353 73.2471 66.6052C73.0171 66.3751 72.705 66.2459 72.3797 66.2459H71.1529V37.4167V8.58743ZM68.6993 3.68033H71.1529V6.13388H68.6993V3.68033ZM34.3496 2.45355H39.2567V7.36065H34.3496V4.9071V2.45355ZM2.45346 3.68033H4.90701V6.13388H2.45346V3.68033ZM4.90701 8.58743H6.13379C6.45915 8.58743 6.77118 8.45818 7.00125 8.22811C7.23131 7.99805 7.36056 7.68601 7.36056 7.36065V6.13388H23.9159C15.2095 9.57498 8.3567 16.3873 4.90701 24.8667V8.58743ZM4.90701 71.153H2.45346V68.6994H4.90701V71.153ZM6.13379 66.2459H4.90701V49.9666C8.3567 58.446 15.2095 65.2583 23.9159 68.6994H7.36056V67.4727C7.36056 67.1473 7.23131 66.8353 7.00125 66.6052C6.77118 66.3751 6.45915 66.2459 6.13379 66.2459ZM29.7492 29.3003L34.0932 41.173C32.5365 42.3139 31.8335 44.3749 32.5303 46.2752C32.7294 46.8246 33.0356 47.329 33.4311 47.7593C33.8265 48.1895 34.3035 48.5369 34.8342 48.7815C35.3636 49.0286 35.9366 49.1684 36.5203 49.1928C37.104 49.2172 37.6867 49.1258 38.2348 48.9238C39.3512 48.5153 40.2406 47.697 40.7411 46.6199C41.2416 45.5416 41.2932 44.3344 40.8847 43.2193C40.1903 41.319 38.3244 40.1978 36.3983 40.3302L32.0519 28.4514L48.9433 41.8748C46.9486 44.6117 46.3953 47.8921 47.4774 50.867L48.8992 54.7571L34.0552 60.1868L32.6309 56.2918C31.5317 53.2899 28.9187 51.159 25.5095 50.418L29.7492 29.3003ZM38.5808 44.0621C38.7636 44.5614 38.7403 45.1036 38.5158 45.5858C38.4059 45.8239 38.25 46.038 38.0569 46.2155C37.8638 46.393 37.6374 46.5305 37.3908 46.6199C36.8915 46.8015 36.348 46.7806 35.8671 46.5549C35.4562 46.3629 35.123 46.0367 34.9223 45.6299C34.7215 45.2232 34.6653 44.7602 34.7629 44.3173C34.8604 43.8744 35.106 43.4779 35.459 43.1931C35.812 42.9083 36.2515 42.7523 36.705 42.7507C37.1142 42.7517 37.5132 42.8779 37.8485 43.1124C38.1838 43.3468 38.4393 43.6782 38.5808 44.0621ZM34.898 62.4932L49.742 57.0622L52.5059 64.6216C52.4372 64.6597 52.3697 64.7001 52.301 64.7369C51.498 65.1778 50.6766 65.5843 49.8389 65.9551L49.6929 66.0177C48.9516 66.3424 48.1983 66.6387 47.4344 66.9059L47.4111 66.9145C47.2933 66.9562 47.1731 66.993 47.0541 67.0335C46.1489 67.3358 45.2303 67.5966 44.3012 67.8149C43.4867 68.0063 42.6635 68.1707 41.8305 68.2983L41.7091 68.3142V66.2459C41.7091 65.9205 41.5798 65.6085 41.3497 65.3784C41.1197 65.1484 40.8076 65.0191 40.4823 65.0191H35.8218L34.898 62.4932ZM39.2567 72.3798H34.3496V67.4727H39.2567V69.9262V72.3798ZM71.1529 71.153H68.6993V68.6994H71.1529V71.153ZM68.6993 50.0193V66.2459H67.4726C67.1472 66.2459 66.8352 66.3751 66.6051 66.6052C66.375 66.8353 66.2458 67.1473 66.2458 67.4727V68.6994H49.6721C49.6941 68.6908 49.715 68.6798 49.7371 68.67C50.6659 68.295 51.5775 67.8787 52.4691 67.4224C53.21 67.0499 53.9376 66.6514 54.6503 66.2275C55.3819 65.788 56.0972 65.322 56.7947 64.8302C57.0168 64.6756 57.229 64.5124 57.4461 64.353C58.1592 63.831 58.8521 63.2818 59.5231 62.7066C59.9708 62.3227 60.4027 61.9264 60.8271 61.5216C61.0124 61.3449 61.2025 61.1719 61.3841 60.9916C61.9693 60.4064 62.5373 59.8078 63.0746 59.1858C63.1261 59.1269 63.1715 59.0631 63.2218 59.003C63.7064 58.4338 64.1701 57.8498 64.6142 57.2524C64.7724 57.0389 64.9209 56.8206 65.0742 56.6046C65.9086 55.4292 66.6628 54.1989 67.3315 52.9219C67.4419 52.7133 67.5584 52.5072 67.6639 52.2962C68.0283 51.5651 68.3706 50.8229 68.6809 50.0659C68.6846 50.05 68.6932 50.0353 68.6993 50.0193ZM54.6429 63.3212L49.7825 50.0255C48.8673 47.5106 49.5248 44.7736 51.5858 42.5127C51.6991 42.3884 51.7855 42.2421 51.8399 42.0829C51.8942 41.9238 51.9153 41.7552 51.9017 41.5875C51.8881 41.4199 51.8402 41.2569 51.761 41.1085C51.6817 40.9602 51.5728 40.8297 51.4411 40.7253L30.4693 24.0595C30.2718 23.3161 29.8743 21.2527 31.0496 19.7572C32.388 18.0557 35.4967 17.4337 40.0357 17.944C44.5907 18.4667 47.7521 17.7698 49.4414 15.8904C50.7688 14.4158 50.7995 12.5683 50.6093 11.7083L48.2146 12.2408C48.2171 12.2518 48.4183 13.3608 47.6184 14.2515C46.5205 15.4696 43.9246 15.9125 40.313 15.5077C34.8023 14.8783 31.0398 15.8033 29.1211 18.2422C27.1828 20.7067 27.844 23.8215 28.1397 24.8532L22.8535 51.186C22.819 51.3533 22.82 51.5259 22.8564 51.6928C22.8928 51.8597 22.9638 52.0171 23.0649 52.1548C23.1659 52.2925 23.2948 52.4075 23.4431 52.4923C23.5913 52.5771 23.7558 52.6298 23.9257 52.6471C27.0712 52.982 29.4045 54.6185 30.327 57.1383L33.2087 65.0191H33.1229C32.7975 65.0191 32.4855 65.1484 32.2554 65.3784C32.0253 65.6085 31.8961 65.9205 31.8961 66.2459V68.3216C16.4154 65.9944 4.90701 52.9378 4.90701 37.4167C4.90701 21.8955 16.4154 8.83892 31.8961 6.51172V8.58743C31.8961 8.91279 32.0253 9.22482 32.2554 9.45489C32.4855 9.68495 32.7975 9.8142 33.1229 9.8142H40.4835C40.8089 9.8142 41.1209 9.68495 41.351 9.45489C41.581 9.22482 41.7103 8.91279 41.7103 8.58743V6.51172C57.191 8.83892 68.6993 21.8955 68.6993 37.4167C68.6993 47.9289 63.4684 57.499 54.6429 63.3212ZM49.6905 6.13388H66.2458V7.36065C66.2458 7.68601 66.375 7.99805 66.6051 8.22811C66.8352 8.45818 67.1472 8.58743 67.4726 8.58743H68.6993V24.8667C65.2496 16.3873 58.3969 9.57498 49.6905 6.13388Z" fill="white"/>
</svg>
