<svg width="68" height="68" viewBox="0 0 68 68" fill="none" xmlns="http://www.w3.org/2000/svg">
<path d="M18.0548 26.5327L17.7379 27.3105C16.5651 30.1893 16.6773 33.3152 18.0548 36.1327" stroke="white" stroke-width="3" stroke-miterlimit="10" stroke-linecap="round" stroke-linejoin="round"/>
<path d="M11.2074 15.0404L11.5596 21.7384C11.9055 28.3158 10.1193 34.8293 6.46673 40.3102L6.29315 40.5708C4.56798 43.1596 4.23562 46.3523 5.3629 49.1711L5.42625 49.3295C6.87584 52.954 10.3864 55.3312 14.2903 55.3318L16.3603 55.3321C17.7734 55.3322 19.1772 55.1044 20.5178 54.6576L22.87 53.8735C25.5685 52.974 28.4859 52.974 31.1844 53.8735L33.5367 54.6576C34.877 55.1043 36.281 55.3305 37.6938 55.3273L43.2797 55.3329C45.1419 55.3286 46.9567 54.7279 48.4735 53.6477L48.521 53.6139C49.6573 52.8047 51.237 53.0895 52.0189 54.2446L52.0202 54.2464C52.2446 54.5811 52.548 54.8554 52.9036 55.0449C53.2592 55.2345 53.6561 55.3336 54.059 55.3334L59.028 55.3326C61.3841 55.3323 63.294 53.4221 63.294 51.066V48.7619C63.294 47.6523 62.4436 46.728 61.3379 46.6359L51.6299 45.827C50.8759 45.7641 50.1336 45.6013 49.4226 45.3427L49.199 45.2614C42.3789 42.7814 36.3971 38.4268 31.9416 32.6985C31.7372 32.4357 31.5889 32.1337 31.5058 31.8113C31.4227 31.489 31.4066 31.1529 31.4585 30.8241L35.6203 4.466C35.8248 3.17119 34.824 2 33.5131 2H12.77C11.5478 2 10.5755 3.02477 10.6396 4.24541L10.9703 10.5334M47.5981 66H12.9672C9.39258 66 6.07475 64.2244 4.09191 61.2501L2.3585 58.6499C1.70498 57.6696 1.96987 56.3451 2.95021 55.6916C3.93043 55.038 5.25498 55.3029 5.90863 56.2833L7.64204 58.8835C8.22565 59.761 9.01731 60.4804 9.94645 60.9777C10.8756 61.4749 11.9133 61.7345 12.9672 61.7334H57.5851C58.5785 61.7322 59.5582 61.5009 60.4473 61.0577L62.9122 59.8252C63.966 59.2983 65.2474 59.7253 65.7744 60.7793C66.3013 61.833 65.8742 63.1146 64.8203 63.6414L62.3553 64.8739C60.8735 65.6126 59.2408 65.998 57.5851 66H52.1052" stroke="white" stroke-width="3" stroke-miterlimit="10" stroke-linecap="round" stroke-linejoin="round"/>
<path d="M37.2 61.7334L36.4079 61.0998C34.9704 59.9497 33.3175 59.0987 31.5464 58.5966C29.7752 58.0944 27.9216 57.9515 26.0944 58.176C24.1764 58.4116 22.3292 59.0471 20.6722 60.0414L17.8521 61.7334M43.6 25.1112H45.2C45.3415 25.1112 45.4771 25.1673 45.5772 25.2674C45.6772 25.3674 45.7334 25.5031 45.7334 25.6445V32.9334C45.7334 33.0735 45.7609 33.2122 45.8145 33.3416C45.8681 33.4711 45.9467 33.5887 46.0458 33.6877C46.1448 33.7867 46.2624 33.8653 46.3918 33.9189C46.5212 33.9725 46.6599 34.0001 46.8 34.0001H51.0668C51.3496 34.0001 51.6209 33.8877 51.821 33.6877C52.021 33.4876 52.1334 33.2163 52.1334 32.9334V25.6445C52.1334 25.5031 52.1896 25.3674 52.2896 25.2674C52.3896 25.1673 52.5253 25.1112 52.6668 25.1112H54.2666C54.7061 25.1112 54.957 24.6095 54.6933 24.2578L49.3599 17.1467C49.1465 16.8622 48.7199 16.8622 48.5065 17.1467L43.1731 24.2578C42.9097 24.6095 43.1605 25.1112 43.6 25.1112Z" stroke="white" stroke-width="3" stroke-miterlimit="10" stroke-linecap="round" stroke-linejoin="round"/>
</svg>
